<svg xmlns="http://www.w3.org/2000/svg" fill="none" viewBox="0 0 406 500" height="50"><path fill="#000" d="M65.12 498.194c-6.47-.945-18.085-3.506-25.812-5.693-23.168-6.556-22.25-12.858 2.132-14.624 8.73-.633 26.347-4.29 40.436-8.394 65.376-19.048 114.345-25.576 193.73-25.826 55.679-.176 57.181-.08 68.842 4.621 7.903 3.182 15.477 8.356 22.469 15.348 13.148 13.148 14.065 20.762 3.189 26.486-6.496 3.419-12.31 2.758-25.596-2.912-6.591-2.812-20.521-7.486-30.957-10.386-18.254-5.073-20.944-5.274-70.901-5.3-46.923-.023-54.045.424-73.897 4.648-12.084 2.572-29.609 7.813-38.946 11.647-31.102 12.773-39.302 14.09-64.689 10.385zm88.655-54.621c0-.496 3.994-3.65 8.874-7.008 10.053-6.917 26.579-26.544 44.704-53.092 12.018-17.604 14.909-24.909 9.834-24.848-1.373.011-15.521 4.51-31.44 9.986-30.681 10.553-34.461 11.183-46.704 7.784-8.935-2.481-24.549-16.022-22.43-19.452.978-1.581 6.763-1.927 18.788-1.124 25.714 1.718 44.634-2.786 102.691-24.445 26.732-9.972 36.785-10.965 42.895-4.236 2.245 2.472 4.684 7.039 5.421 10.15 1.491 6.295 3.729 3.793-38.943 43.52-29.566 27.524-36.754 33.449-56.618 46.666-17.538 11.669-37.072 20.151-37.072 16.098v.001zM99.102 304.106c-9.123-11.132-11.734-18.386-10.19-28.306 1.211-7.787 25.558-59.93 28.966-62.036 2.696-1.667 4.449 2.848 5.734 14.772 1.81 16.798 5.258 16.104 25.225-5.07 11.913-12.635 17.27-17.05 18.826-15.52 2.412 2.373 1.628 3.61-20.433 32.229-15.879 20.599-22.554 33.331-26.625 50.78-3.278 14.053-7.395 21.704-11.679 21.704-1.549 0-5.97-3.849-9.824-8.553zm130.568-20.04c0-1.446 5.392-5.206 11.983-8.356 6.591-3.15 11.983-6.705 11.983-7.901 0-1.195-2.721-5.476-6.048-9.512-11.435-13.872-12.921-19.744-12.923-51.065-.002-31.092-.434-32.29-11.653-32.351-7.626-.045-6.08-4.047 3.371-8.731 10.401-5.154 23.774-3.075 31.793 4.944 6.592 6.592 6.625 5.766-1.287 32.44-7.456 25.136-7.108 31.608 2.075 38.621 6.622 5.057 9.276 5.691 27.639 6.609 18.343.916 21.022 1.555 27.626 6.592 5.486 4.185 7.313 7.04 7.313 11.43 0 6.757.524 6.583-29.037 9.679-11.028 1.155-27.655 3.923-36.949 6.151-19.736 4.731-25.886 5.076-25.886 1.45zM15.172 206.609C7.138 200.289-.012 184.648 0 173.419c.011-10.048 1.257-12.579 15.158-30.793 12.33-16.156 30.35-43.202 31.774-47.688.693-2.184 1.998-3.97 2.9-3.97 3.039 0 4.357 14.306 2.961 32.143-1.18 15.093-.922 17.894 1.746 18.918 1.76.675 12.565-3.348 24.652-9.178 11.837-5.709 35.482-15.577 52.546-21.93 103.46-38.513 169.873-48.994 228.199-36.012 18.931 4.213 23.408 6.09 32.507 13.624 18.765 15.537 17.242 34.037-3.684 44.736-8.158 4.171-42.159 15.618-46.392 15.618-1.189 0-7.81 2.295-14.714 5.1-6.904 2.806-12.994 4.66-13.532 4.122-.539-.539 5.846-8.881 14.188-18.539 19.721-22.833 29.936-37.769 28.46-41.615-1.997-5.204-10.668-6.989-33.859-6.97-50.045.046-120.719 12.369-168.136 29.329-48.197 17.239-91.014 45.282-113.841 74.559-6.6 8.464-15.785 15.927-19.604 15.927-.456 0-3.226-1.886-6.157-4.191zM199.4 65.049c-4.158-3.426-10.441-12.302-14.832-20.952-4.191-8.254-11.902-20.633-17.137-27.508-14.878-19.543-12.984-20.722 14.88-9.256 29.116 11.981 39.369 24.279 39.369 47.22 0 6.407-1.079 12.727-2.397 14.045-4.114 4.115-12.376 2.64-19.883-3.548z"/></svg>